<svg id="5af97e4e-7326-4a37-9310-df47d2a88c2a" data-name="Layer 2" xmlns="http://www.w3.org/2000/svg" xmlns:xlink="http://www.w3.org/1999/xlink" viewBox="0 0 272.82 225.6"><defs><style>.facd7028-d51e-4eb3-ae8d-0a623ca658e9{fill:none;stroke:#e52521;stroke-miterlimit:10;stroke-width:0.25px;}.\37 7abc861-9709-40ed-8acc-d1a584175808{fill:url(#1baddc52-e17f-4fff-b627-386c1e27b276);}.\37 14407a1-00a9-4133-8aed-c39473ffcf4d{fill:url(#90a18269-2a96-45c3-ba28-694d13755a42);}.\39 84a6312-6d64-4ba4-ae44-646356c6c54b{fill:url(#5c287800-7d0b-40f5-a6ff-aadb0fc09d69);}.\35 a38404c-6c6d-4905-8e19-312620751e8b{fill:url(#ea4773b4-a63e-460d-8c46-29c4184c758b);}.\30 89fd670-ce80-40bf-a67b-a863930b493e{fill:url(#5c950cfd-00a6-472d-806d-b6f2827494e4);}.b2de7154-5ff2-4116-b9d0-28c8cf2b1fc1{fill:url(#bd15183b-1075-40d9-b5fb-df6492ecfe7c);}</style><linearGradient id="1baddc52-e17f-4fff-b627-386c1e27b276" x1="438.35" y1="330.59" x2="495.3" y2="273.65" gradientUnits="userSpaceOnUse"><stop offset="0" stop-color="#662483"/><stop offset="0.63" stop-color="#412683"/><stop offset="1" stop-color="#312783"/></linearGradient><linearGradient id="90a18269-2a96-45c3-ba28-694d13755a42" x1="491.97" y1="251.55" x2="429.89" y2="144.02" gradientUnits="userSpaceOnUse"><stop offset="0" stop-color="#009fe3"/><stop offset="1" stop-color="#662483"/></linearGradient><linearGradient id="5c287800-7d0b-40f5-a6ff-aadb0fc09d69" x1="249.52" y1="79.14" x2="227.37" y2="40.79" xlink:href="#90a18269-2a96-45c3-ba28-694d13755a42"/><linearGradient id="ea4773b4-a63e-460d-8c46-29c4184c758b" x1="119.77" y1="79.14" x2="97.62" y2="40.79" xlink:href="#90a18269-2a96-45c3-ba28-694d13755a42"/><linearGradient id="5c950cfd-00a6-472d-806d-b6f2827494e4" x1="-225.69" y1="391.32" x2="-168.74" y2="334.37" gradientTransform="translate(154.53 509.67) rotate(180)" xlink:href="#1baddc52-e17f-4fff-b627-386c1e27b276"/><linearGradient id="bd15183b-1075-40d9-b5fb-df6492ecfe7c" x1="-172.07" y1="312.28" x2="-234.15" y2="204.75" gradientTransform="translate(154.53 509.67) rotate(180)" xlink:href="#90a18269-2a96-45c3-ba28-694d13755a42"/></defs><title>LOGO</title><path class="facd7028-d51e-4eb3-ae8d-0a623ca658e9" d="M434,297.45" transform="translate(-279.18 -111.67)"/><path class="facd7028-d51e-4eb3-ae8d-0a623ca658e9" d="M431.08,301.54" transform="translate(-279.18 -111.67)"/><path class="77abc861-9709-40ed-8acc-d1a584175808" d="M483.69,319.91l-.18.32s-.55.52-1.38,1.35L476,327.77l-3.57,3.62,0,0a26,26,0,0,1-16.53,5.85c-14,0-25.3-10.79-25.3-24.11a23.51,23.51,0,0,1,7.87-17.47l.13-.12,8.09-7.79,16.23-15.64.88-.84,14.89-14.19h0C480.41,258.59,505.69,281,483.69,319.91Z" transform="translate(-279.18 -111.67)"/><path class="714407a1-00a9-4133-8aed-c39473ffcf4d" d="M539.39,256.9c.1,8.43-5.77,14.92-11.2,20.24l-12.43,12.11h0l-32.07,30.66c22-38.92-3.27-61.32-5-62.81h0l-35.6-34-3-2.69c-1.92-1.74-3.51-3.16-3.77-3.38l0,0a23.31,23.31,0,0,1-6.08-15.66c0-13.24,11.22-24,25.07-24a25.54,25.54,0,0,1,18.17,7.46l.13.12c3.17,3,40.08,37.9,40.08,37.9l0,0,17.64,16.67.12.12A23.44,23.44,0,0,1,539.39,256.9Z" transform="translate(-279.18 -111.67)"/><ellipse class="984a6312-6d64-4ba4-ae44-646356c6c54b" cx="246.75" cy="74.34" rx="26.08" ry="24.87"/><ellipse class="5a38404c-6c6d-4905-8e19-312620751e8b" cx="117" cy="74.34" rx="26.08" ry="24.87"/><path class="089fd670-ce80-40bf-a67b-a863930b493e" d="M334.88,129l.18-.32s.55-.52,1.38-1.35l6.13-6.19,3.57-3.62,0,0a26,26,0,0,1,16.53-5.85c14,0,25.3,10.79,25.3,24.11a23.51,23.51,0,0,1-7.87,17.47l-.13.12-8.09,7.79-16.23,15.64-.88.84-14.89,14.19h0C338.15,190.35,312.88,167.95,334.88,129Z" transform="translate(-279.18 -111.67)"/><path class="b2de7154-5ff2-4116-b9d0-28c8cf2b1fc1" d="M279.18,192c-.1-8.43,5.77-14.92,11.2-20.24l12.43-12.11h0L334.88,129c-22,38.92,3.27,61.32,5,62.81h0l35.6,34,3,2.69c1.92,1.74,3.51,3.16,3.77,3.38l0,0a23.31,23.31,0,0,1,6.08,15.66c0,13.24-11.22,24-25.07,24a25.54,25.54,0,0,1-18.17-7.46l-.13-.12c-3.17-3-40.08-37.9-40.08-37.9l0,0L287.3,209.46l-.12-.12A23.44,23.44,0,0,1,279.18,192Z" transform="translate(-279.18 -111.67)"/></svg>